<svg xmlns="http://www.w3.org/2000/svg" width="16" height="16" viewBox="0 0 16 16" fill="none">
  <path d="M9.66659 2.76188C9.24992 2.76188 8.9523 2.46427 8.9523 2.0476C8.9523 1.66069 9.24992 1.33331 9.66659 1.33331H13.9523C14.3392 1.33331 14.6666 1.66069 14.6666 2.0476V6.33331C14.6666 6.74998 14.3392 7.0476 13.9523 7.0476C13.5356 7.0476 13.238 6.74998 13.238 6.33331V3.77379L7.28563 9.69641C7.01778 9.99403 6.57135 9.99403 6.30349 9.69641C6.00587 9.42855 6.00587 8.98212 6.30349 8.6845L12.2261 2.76188H9.66659ZM1.33325 3.95236C1.33325 3.0595 2.0773 2.28569 2.99992 2.28569H6.33325C6.72016 2.28569 7.04754 2.61307 7.04754 2.99998C7.04754 3.41665 6.72016 3.71427 6.33325 3.71427H2.99992C2.85111 3.71427 2.76182 3.83331 2.76182 3.95236V13C2.76182 13.1488 2.85111 13.2381 2.99992 13.2381H12.0475C12.1666 13.2381 12.2856 13.1488 12.2856 13V9.66665C12.2856 9.27974 12.5833 8.95236 12.9999 8.95236C13.3868 8.95236 13.7142 9.27974 13.7142 9.66665V13C13.7142 13.9226 12.9404 14.6666 12.0475 14.6666H2.99992C2.0773 14.6666 1.33325 13.9226 1.33325 13V3.95236Z" />
</svg>
