<svg width="19" height="19" viewBox="0 0 19 19" fill="none" xmlns="http://www.w3.org/2000/svg">
<path id="Vector" d="M18 18V9.86069C18 9.35503 17.8958 8.85465 17.6936 8.38999C17.4915 7.92534 17.1957 7.50612 16.8242 7.15784L10.8014 1.51261C10.4504 1.1835 9.98468 1 9.50047 1C9.01627 1 8.55055 1.1835 8.1995 1.51261L2.17583 7.15784C1.80434 7.50612 1.50852 7.92534 1.30638 8.38999C1.10424 8.85465 0.999999 9.35503 1 9.86069V12.9983V14.5671V16.136C1 16.6303 1.19901 17.1045 1.55324 17.454C1.90748 17.8036 2.38792 18 2.88889 18H7.19444V12H12V18H15" stroke="#125275" stroke-width="2" stroke-linecap="round" stroke-linejoin="round"/>
</svg>
