<svg width="18" height="18" viewBox="0 0 18 18" fill="none" xmlns="http://www.w3.org/2000/svg">
<path id="Perfil" d="M9.43305 2.44314e-07C10.5442 -0.000340704 11.6262 0.356181 12.5203 1.01724C13.4144 1.67829 14.0734 2.60907 14.4006 3.67294C14.7278 4.73682 14.706 5.87777 14.3384 6.92834C13.9708 7.9789 13.2768 8.88374 12.3581 9.51005C13.9526 10.096 15.3356 11.1466 16.329 12.5267C17.3225 13.9067 17.8809 15.5531 17.9324 17.2538C17.9372 17.3482 17.9232 17.4427 17.8911 17.5315C17.859 17.6204 17.8095 17.702 17.7455 17.7715C17.6816 17.841 17.6044 17.8969 17.5185 17.9361C17.4327 17.9753 17.3399 17.9969 17.2455 17.9997C17.1512 18.0025 17.0573 17.9863 16.9693 17.9523C16.8813 17.9182 16.801 17.8669 16.733 17.8013C16.6651 17.7357 16.6109 17.6571 16.5737 17.5703C16.5364 17.4834 16.5169 17.39 16.5162 17.2955C16.4599 15.4511 15.689 13.7011 14.3669 12.4164C13.0448 11.1317 11.2754 10.4132 9.43352 10.4132C7.59169 10.4132 5.82222 11.1317 4.50011 12.4164C3.17799 13.7011 2.40712 15.4511 2.35086 17.2955C2.34522 17.4838 2.26516 17.6621 2.12829 17.7912C1.99141 17.9204 1.80894 17.9897 1.62101 17.9841C1.43308 17.9785 1.25508 17.8982 1.12618 17.7611C0.997279 17.624 0.928031 17.4412 0.933669 17.2529C0.985395 15.5523 1.54391 13.9061 2.53733 12.5263C3.53075 11.1464 4.91362 10.0959 6.50796 9.51005C5.58932 8.88374 4.89527 7.9789 4.52767 6.92834C4.16007 5.87777 4.13829 4.73682 4.46551 3.67294C4.79274 2.60907 5.45174 1.67829 6.3458 1.01724C7.23985 0.356181 8.32187 -0.000340704 9.43305 2.44314e-07ZM5.65387 5.20606C5.65387 6.21023 6.05203 7.17327 6.76076 7.88333C7.4695 8.59338 8.43075 8.99229 9.43305 8.99229C10.4353 8.99229 11.3966 8.59338 12.1053 7.88333C12.8141 7.17327 13.2122 6.21023 13.2122 5.20606C13.2122 4.20189 12.8141 3.23885 12.1053 2.5288C11.3966 1.81874 10.4353 1.41984 9.43305 1.41984C8.43075 1.41984 7.4695 1.81874 6.76076 2.5288C6.05203 3.23885 5.65387 4.20189 5.65387 5.20606Z" fill="#2F87B7"/>
</svg>
